<svg xmlns="http://www.w3.org/2000/svg" width="48" height="48" viewBox="0 0 48 48" fill="none">
  <rect width="48" height="48" rx="12" fill="#0F172A"/>
  <path d="M24 6L38 11.25V21.75C38 30.65 32.08 38.95 24 42C15.92 38.95 10 30.65 10 21.75V11.25L24 6Z" fill="#4F46E5"/>
  <path d="M24 10.2L34 14V22.05C34 28.9 29.92 35.05 24 37.65C18.08 35.05 14 28.9 14 22.05V14L24 10.2Z" fill="#2563EB"/>
  <path d="M20.45 24.05L22.9 26.5L28.95 19.95" stroke="#FFFFFF" stroke-width="3.2" stroke-linecap="round" stroke-linejoin="round"/>
  <path d="M24 10.2V37.65C29.92 35.05 34 28.9 34 22.05V14L24 10.2Z" fill="#60A5FA" fill-opacity="0.28"/>
</svg>
